<?xml version="1.0" standalone="no"?>
<!DOCTYPE svg PUBLIC "-//W3C//DTD SVG 20010904//EN"
 "http://www.w3.org/TR/2001/REC-SVG-20010904/DTD/svg10.dtd">
<svg version="1.0" xmlns="http://www.w3.org/2000/svg"
 width="128.000000pt" height="128.000000pt" viewBox="0 0 128.000000 128.000000"
 preserveAspectRatio="xMidYMid meet">
<metadata>
Created by potrace 1.11, written by Peter Selinger 2001-2013
</metadata>
<g transform="translate(0.000000,128.000000) scale(0.100000,-0.100000)"
fill="#000000" stroke="none">
<path d="M538 976 c-91 -27 -167 -92 -215 -186 -24 -48 -27 -67 -28 -145 0
-113 21 -162 102 -243 76 -76 138 -100 248 -98 66 2 90 7 137 30 73 37 127 91
163 163 26 51 29 68 29 148 0 69 -5 101 -21 135 -31 68 -105 145 -170 175 -67
32 -174 41 -245 21z"/>
</g>
</svg>
